<?xml version="1.0" standalone="no"?>
<!DOCTYPE svg PUBLIC "-//W3C//DTD SVG 20010904//EN"
 "http://www.w3.org/TR/2001/REC-SVG-20010904/DTD/svg10.dtd">
<svg version="1.0" xmlns="http://www.w3.org/2000/svg"
 width="192.000000pt" height="192.000000pt" viewBox="0 0 192.000000 192.000000"
 preserveAspectRatio="xMidYMid meet">
<metadata>
Created by potrace 1.14, written by Peter Selinger 2001-2017
</metadata>
<g transform="translate(0.000000,192.000000) scale(0.100000,-0.100000)"
fill="#000000" stroke="none">
<path d="M857 1613 c-4 -3 -7 -39 -7 -80 0 -52 -4 -73 -12 -73 -7 0 -40 -13
-73 -29 -172 -81 -218 -267 -99 -400 50 -56 112 -88 254 -131 183 -56 240
-101 240 -188 0 -82 -68 -126 -195 -126 -121 -1 -195 42 -211 123 l-6 31 -79
0 -79 0 0 -33 c0 -45 44 -130 88 -168 38 -34 126 -79 154 -79 15 0 18 -13 20
-83 l3 -82 110 0 110 0 3 80 3 80 57 17 c78 23 131 64 165 127 24 43 29 64 29
121 0 157 -84 236 -335 316 -176 56 -227 94 -227 168 0 42 39 92 87 112 42 18
164 18 207 0 41 -17 74 -58 82 -102 l6 -34 80 0 81 0 -7 47 c-12 89 -93 187
-180 216 -34 11 -41 18 -44 43 -1 16 -5 53 -8 82 l-5 52 -103 0 c-56 0 -106
-3 -109 -7z"/>
</g>
</svg>
